<svg width="102" height="116" viewBox="0 0 102 116" fill="currentColor" xmlns="http://www.w3.org/2000/svg">
<path d="M98.378 85.3155C96.7958 77.8897 89.4578 73.1374 82.0205 74.7221C79.7088 75.2146 77.6561 76.2629 75.9713 77.6961C73.583 74.8982 71.644 72.1704 71.2576 70.3571C71.2566 70.3523 71.2543 70.3481 71.2532 70.3434C71.2506 70.3317 71.2475 70.3203 71.2444 70.3086C71.2428 70.3027 71.2429 70.2968 71.2412 70.291C71.2351 70.2696 71.2245 70.2511 71.217 70.2306C71.2077 70.2047 71.2 70.1782 71.1887 70.1535C71.1866 70.1491 71.1859 70.1445 71.1838 70.1401L64.0864 55.2739C63.6888 55.2532 63.2942 55.1779 62.9153 55.0397L61.5736 54.5518L68.9248 69.9494C64.5476 71.2586 60.6709 72.7315 57.2451 74.2919L57.08 78.8342C61.2805 76.7818 65.8972 74.9975 70.7246 73.9046C71.7 75.5277 73.0725 77.3128 74.5725 79.0694C71.7755 82.2323 70.4576 86.6304 71.4021 91.0633C72.9843 98.4891 80.3223 103.241 87.7595 101.656C95.1967 100.072 99.9602 92.7413 98.378 85.3155ZM74.464 90.4109C73.762 87.1164 74.6781 83.848 76.671 81.4278C80.2963 85.3557 83.9466 88.6559 84.2349 88.9153C84.4771 89.1333 84.7981 89.2077 85.0943 89.1445C85.2891 89.1031 85.4731 89.0022 85.6165 88.8429C85.9783 88.442 85.9463 87.8242 85.5451 87.4634C83.8507 85.939 80.8627 83.0866 78.0496 80.0344C79.3419 78.9495 80.9091 78.1548 82.6719 77.7792C88.4208 76.5543 94.093 80.2277 95.316 85.9678C96.5391 91.7079 92.8569 97.3742 87.108 98.5992C81.3591 99.8241 75.687 96.151 74.464 90.4109Z" fill="currentColor"/>
<path d="M44.0208 93.4024C43.2087 91.7686 42.0895 90.3392 40.752 89.1723C41.5206 88.5688 42.3742 87.9179 43.3053 87.2347L45.1917 89.7694C45.1422 89.4293 45.1178 89.0815 45.1307 88.7261L45.2109 86.5189L44.894 86.0931C45.0069 86.0135 45.1204 85.9339 45.2351 85.8539L45.4079 81.1009C44.4458 81.7986 43.5543 82.4919 42.7228 83.1759L32.0084 68.78C32.4027 68.564 32.8421 68.3487 33.2956 68.14L32.0764 68.0799C30.8267 68.1871 28.0324 68.3928 25.6077 66.5758C25.429 66.6816 25.297 66.8896 25.2487 67.1634C25.1584 67.6746 25.0694 68.4603 25.1905 69.1866C25.3819 70.3351 29.0762 71.0634 30.4409 69.9499L41.2323 84.4493C40.0807 85.4722 39.0693 86.4637 38.1875 87.4028C35.4113 85.9126 32.1147 85.3556 28.7968 86.0626C21.3596 87.6472 16.5961 94.9779 18.1783 102.404C19.7605 109.83 27.0985 114.582 34.5357 112.997C41.9729 111.412 46.7364 104.082 45.1542 96.6559C45.0489 96.1615 44.9162 95.68 44.7615 95.2104L47.9539 93.8999C47.3239 93.5238 46.7718 93.0327 46.3271 92.4556L44.0208 93.4024ZM41.1124 94.5962L33.3795 97.7705C33.9027 96.6113 34.7434 95.0125 36.0307 93.1533C36.0565 93.1331 36.0857 93.1195 36.1098 93.0963C36.1438 93.0639 36.9096 92.3398 38.2791 91.1837C39.438 92.0974 40.4097 93.2545 41.1124 94.5962ZM42.0923 97.3083C43.3154 103.048 39.6332 108.715 33.8843 109.94C28.1354 111.165 22.4633 107.491 21.2402 101.751C20.0172 96.0112 23.6993 90.3447 29.4482 89.1198C31.7623 88.6267 34.0635 88.9285 36.0676 89.8381C31.8256 95.1061 30.7658 99.1032 30.7184 99.289C30.627 99.6467 30.7454 100.025 31.0245 100.267C31.2588 100.471 31.5727 100.549 31.8696 100.485C31.9264 100.473 31.9827 100.456 32.0378 100.433L41.8551 96.4035C41.9457 96.6993 42.0266 97.0002 42.0923 97.3083Z" fill="currentColor"/>
<path d="M56.7391 63.4394C56.8361 60.7697 54.7673 58.5186 52.0955 58.3868L36.6059 57.6225C36.0375 53.5939 36.2053 49.271 36.4804 45.4272L30.2424 43.1589C28.1547 42.3998 27.0756 40.0857 27.8374 38C28.316 36.6887 29.4191 35.7316 30.7878 35.4399C31.5264 35.2826 32.2927 35.3362 33.0046 35.5949L36.7722 36.965C36.1986 34.2401 34.4948 31.9457 32.0906 31.6453C28.6746 31.2177 24.0822 33.5942 22.8066 39.5099C21.1009 47.6541 21.1431 52.8166 23.1808 61.3143C24.9636 66.851 28.7229 67.4666 32.0603 67.1794L46.7881 67.906L46.03 88.7581C45.932 91.4541 48.0412 93.7173 50.7406 93.8136C51.1525 93.8284 51.5541 93.7916 51.9399 93.7094C54.0816 93.2531 55.7232 91.3908 55.8062 89.1063L56.7391 63.4394Z" fill="currentColor"/>
<path d="M32.6962 36.4395C31.0723 35.8492 29.275 36.6855 28.6828 38.3075C28.0903 39.9299 28.9266 41.7239 30.5509 42.3145L63.2243 54.1956C63.7965 54.4041 64.3904 54.4348 64.9454 54.3165C65.9654 54.0992 66.8543 53.378 67.2377 52.3276C67.8302 50.7056 66.9939 48.9116 65.3696 48.321L32.6962 36.4395Z" fill="currentColor"/>
<path d="M44.3671 28.8892C46.1275 27.6698 47.4637 25.8254 48.0025 23.5814C48.7106 20.6328 47.8777 17.678 46.025 15.5549C44.6316 16.3639 42.6772 17.6392 42.0304 18.4408C41.0569 19.6466 40.1294 20.7146 39.2407 21.6619C39.2408 22.5207 39.565 25.9335 44.3671 28.8892Z" fill="currentColor"/>
<path d="M37.1173 30.2538C39.2595 30.7655 41.4057 30.467 43.2353 29.558C39.5458 27.1102 38.4739 24.3714 38.1772 22.7544C35.8092 25.0887 33.7512 26.4488 31.9666 26.8533C33.1854 28.4983 34.968 29.7407 37.1173 30.2538Z" fill="currentColor"/>
<path d="M37.3844 9.36742C31.7476 9.33413 27.1482 13.8703 27.1113 19.4992C27.0936 22.2091 28.6078 33.1987 41.1164 17.7055C42.1933 16.3716 45.4784 14.5125 45.9535 14.2476C46.5259 14.1364 46.9458 13.9824 47.1399 13.805C47.2162 13.7353 47.2612 13.6623 47.2618 13.5864C47.2626 13.4636 47.0347 13.2793 46.6647 13.0732C46.1091 12.7637 45.2297 12.4058 44.3031 12.1291C42.4932 10.4317 40.0641 9.38328 37.3844 9.36742ZM40.3799 14.2502C39.6079 13.9042 39.1675 13.2114 39.3964 12.7027C39.6252 12.194 40.4366 12.0622 41.2087 12.4082C41.9808 12.7542 42.4211 13.447 42.1922 13.9557C41.9634 14.4643 41.152 14.5962 40.3799 14.2502Z" fill="currentColor"/>
</svg>
