<svg width="128" height="128" viewBox="0 0 128 128" fill="none" xmlns="http://www.w3.org/2000/svg">
<path d="M0 50C0 22.3858 22.3858 0 50 0H118C123.523 0 128 4.47715 128 10V78C128 105.614 105.614 128 78 128H10C4.47715 128 0 123.523 0 118V50Z" fill="#F2F2F2"/>
<g clip-path="url(#clip0_6_29)">
<path d="M111.378 91.3155C109.796 83.8897 102.458 79.1374 95.0205 80.7221C92.7088 81.2146 90.6561 82.2629 88.9713 83.6961C86.583 80.8982 84.644 78.1704 84.2576 76.3571C84.2566 76.3523 84.2543 76.3481 84.2532 76.3434C84.2505 76.3317 84.2475 76.3203 84.2444 76.3086C84.2428 76.3027 84.2429 76.2968 84.2412 76.291C84.235 76.2697 84.2245 76.2511 84.217 76.2306C84.2077 76.2047 84.2 76.1782 84.1887 76.1535C84.1866 76.1491 84.1859 76.1445 84.1838 76.1401L77.0864 61.2739C76.6888 61.2532 76.2942 61.1779 75.9153 61.0397L74.5735 60.5518L81.9248 75.9494C77.5476 77.2586 73.6709 78.7315 70.245 80.2919L70.08 84.8342C74.2805 82.7818 78.8972 80.9975 83.7246 79.9046C84.7 81.5277 86.0725 83.3128 87.5725 85.0694C84.7755 88.2323 83.4576 92.6304 84.4021 97.0633C85.9843 104.489 93.3223 109.241 100.759 107.656C108.197 106.072 112.96 98.7413 111.378 91.3155ZM87.4639 96.4109C86.762 93.1164 87.678 89.848 89.671 87.4278C93.2963 91.3557 96.9466 94.6559 97.2349 94.9153C97.4771 95.1333 97.7981 95.2077 98.0943 95.1446C98.2891 95.1031 98.4731 95.0022 98.6165 94.8429C98.9783 94.442 98.9463 93.8242 98.5451 93.4634C96.8507 91.939 93.8627 89.0866 91.0496 86.0344C92.3419 84.9495 93.9091 84.1548 95.6719 83.7792C101.421 82.5543 107.093 86.2277 108.316 91.9678C109.539 97.7079 105.857 103.374 100.108 104.599C94.3591 105.824 88.687 102.151 87.4639 96.4109Z" fill="#A60321"/>
<path d="M57.0208 99.4024C56.2087 97.7686 55.0895 96.3392 53.752 95.1723C54.5206 94.5688 55.3742 93.9179 56.3053 93.2347L58.1917 95.7694C58.1422 95.4293 58.1178 95.0815 58.1307 94.7261L58.2109 92.5189L57.894 92.0931C58.0069 92.0135 58.1204 91.9339 58.2351 91.8539L58.4079 87.1009C57.4458 87.7986 56.5543 88.4919 55.7228 89.1759L45.0084 74.78C45.4027 74.564 45.8421 74.3487 46.2956 74.14L45.0764 74.0799C43.8267 74.1871 41.0324 74.3928 38.6077 72.5758C38.429 72.6816 38.297 72.8896 38.2487 73.1634C38.1584 73.6746 38.0694 74.4603 38.1905 75.1866C38.3819 76.3351 42.0762 77.0634 43.4409 75.9499L54.2323 90.4493C53.0807 91.4722 52.0693 92.4637 51.1875 93.4028C48.4113 91.9126 45.1147 91.3556 41.7968 92.0626C34.3595 93.6472 29.5961 100.978 31.1783 108.404C32.7605 115.83 40.0985 120.582 47.5357 118.997C54.9729 117.412 59.7364 110.082 58.1542 102.656C58.0489 102.162 57.9162 101.68 57.7615 101.21L60.9539 99.8999C60.3239 99.5238 59.7718 99.0327 59.3271 98.4556L57.0208 99.4024ZM54.1124 100.596L46.3795 103.77C46.9027 102.611 47.7434 101.012 49.0307 99.1533C49.0565 99.1331 49.0857 99.1195 49.1098 99.0963C49.1438 99.0639 49.9096 98.3398 51.2791 97.1837C52.438 98.0974 53.4097 99.2545 54.1124 100.596ZM55.0923 103.308C56.3154 109.048 52.6332 114.715 46.8843 115.94C41.1354 117.165 35.4633 113.491 34.2402 107.751C33.0172 102.011 36.6993 96.3447 42.4482 95.1198C44.7623 94.6267 47.0635 94.9285 49.0676 95.8381C44.8256 101.106 43.7658 105.103 43.7184 105.289C43.627 105.647 43.7454 106.025 44.0245 106.267C44.2587 106.471 44.5727 106.549 44.8696 106.485C44.9264 106.473 44.9827 106.456 45.0378 106.433L54.8551 102.403C54.9456 102.699 55.0266 103 55.0923 103.308Z" fill="#A60321"/>
<path d="M69.7391 69.4394C69.8361 66.7697 67.7673 64.5186 65.0955 64.3868L49.6059 63.6225C49.0375 59.5939 49.2053 55.271 49.4804 51.4272L43.2424 49.1589C41.1547 48.3998 40.0756 46.0857 40.8374 44C41.316 42.6887 42.4191 41.7316 43.7878 41.4399C44.5264 41.2826 45.2927 41.3362 46.0046 41.5949L49.7722 42.965C49.1986 40.2401 47.4948 37.9457 45.0906 37.6453C41.6746 37.2177 37.0822 39.5942 35.8066 45.5099C34.1009 53.6541 34.1431 58.8166 36.1808 67.3143C37.9636 72.851 41.7229 73.4666 45.0603 73.1794L59.7881 73.906L59.03 94.7581C58.932 97.4541 61.0412 99.7173 63.7406 99.8136C64.1525 99.8284 64.5541 99.7916 64.9399 99.7094C67.0816 99.2531 68.7232 97.3908 68.8062 95.1064L69.7391 69.4394Z" fill="#A60321"/>
<path d="M45.6962 42.4395C44.0723 41.8492 42.275 42.6855 41.6828 44.3075C41.0903 45.9299 41.9266 47.7239 43.5509 48.3145L76.2243 60.1956C76.7965 60.4041 77.3904 60.4348 77.9454 60.3165C78.9654 60.0992 79.8543 59.378 80.2377 58.3276C80.8302 56.7056 79.9939 54.9116 78.3696 54.321L45.6962 42.4395Z" fill="#A60321"/>
<path d="M57.3672 34.8892C59.1275 33.6698 60.4637 31.8254 61.0025 29.5814C61.7106 26.6328 60.8777 23.678 59.025 21.5549C57.6316 22.3639 55.6772 23.6392 55.0304 24.4408C54.0569 25.6466 53.1294 26.7146 52.2407 27.6619C52.2408 28.5207 52.565 31.9335 57.3672 34.8892Z" fill="#A60321"/>
<path d="M50.1173 36.2538C52.2595 36.7655 54.4057 36.467 56.2353 35.558C52.5458 33.1102 51.4739 30.3714 51.1771 28.7544C48.8092 31.0887 46.7512 32.4488 44.9666 32.8533C46.1854 34.4983 47.968 35.7407 50.1173 36.2538Z" fill="#A60321"/>
<path d="M50.3844 15.3674C44.7476 15.3341 40.1482 19.8703 40.1113 25.4992C40.0936 28.2091 41.6078 39.1987 54.1164 23.7055C55.1933 22.3716 58.4784 20.5125 58.9534 20.2476C59.5259 20.1364 59.9458 19.9824 60.1399 19.805C60.2162 19.7353 60.2612 19.6623 60.2618 19.5864C60.2626 19.4636 60.0347 19.2793 59.6647 19.0732C59.1091 18.7637 58.2297 18.4058 57.3031 18.1291C55.4932 16.4317 53.0641 15.3833 50.3844 15.3674ZM53.3799 20.2502C52.6079 19.9042 52.1675 19.2114 52.3964 18.7027C52.6252 18.194 53.4366 18.0622 54.2087 18.4082C54.9808 18.7542 55.4211 19.447 55.1922 19.9557C54.9634 20.4643 54.152 20.5962 53.3799 20.2502Z" fill="#A60321"/>
</g>
<defs>
<clipPath id="clip0_6_29">
<rect width="82" height="101" fill="white" transform="translate(13 23.0883) rotate(-12.0282)"/>
</clipPath>
</defs>
</svg>
